<svg width="236" height="83" viewBox="0 0 236 83" fill="none" xmlns="http://www.w3.org/2000/svg">
<path d="M18.3469 38.0803H13.7224C13.347 38.0803 13.0285 38.2112 12.7668 38.4728C12.5052 38.7231 12.3743 39.0416 12.3743 39.4284V42.756H13.6542C14.5756 42.756 15.3834 42.9039 16.0773 43.1996C16.7826 43.4954 17.3685 43.9163 17.8349 44.4624C18.3127 44.9971 18.6711 45.6398 18.91 46.3907C19.1489 47.1415 19.2683 47.972 19.2683 48.8821C19.2683 50.1903 19.0181 51.3336 18.5175 52.312C18.0169 53.3017 17.3571 54.1208 16.538 54.7693C15.7303 55.4291 14.8032 55.924 13.7566 56.2539C12.7099 56.5838 11.6406 56.7487 10.5485 56.7487C9.46771 56.7487 8.40404 56.5838 7.35742 56.2539C6.32219 55.9353 5.39502 55.4462 4.57593 54.7863C3.76822 54.1379 3.11409 53.3245 2.61354 52.3461C2.12436 51.3678 1.87977 50.2245 1.87977 48.9162V36.5787H6.24824V48.9162C6.24824 49.4964 6.36769 50.0026 6.60659 50.4349C6.85687 50.8672 7.18109 51.2256 7.57926 51.51C7.9888 51.8058 8.44954 52.0276 8.96147 52.1755C9.48478 52.3234 10.0138 52.3973 10.5485 52.3973C11.0945 52.3973 11.6292 52.3234 12.1525 52.1755C12.6758 52.0276 13.1365 51.8058 13.5347 51.51C13.9443 51.2142 14.2742 50.8502 14.5244 50.4179C14.7747 49.9742 14.8999 49.4623 14.8999 48.8821C14.8999 48.3474 14.7918 47.9208 14.5756 47.6022C14.3709 47.2723 14.0637 47.1074 13.6542 47.1074H8.02293V39.4284C8.02293 38.6435 8.17082 37.904 8.4666 37.2101C8.77376 36.5161 9.18331 35.9132 9.69524 35.4012C10.2072 34.8779 10.8101 34.4684 11.5041 34.1726C12.198 33.8655 12.9375 33.7119 13.7224 33.7119H18.3469V38.0803ZM10.9239 60.6394C10.9239 60.3322 10.9808 60.0422 11.0945 59.7691C11.2197 59.5075 11.3789 59.2743 11.5723 59.0695C11.7771 58.8761 12.0103 58.7225 12.272 58.6087C12.545 58.495 12.8351 58.4381 13.1422 58.4381C13.4494 58.4381 13.7338 58.495 13.9955 58.6087C14.2685 58.7225 14.5017 58.8761 14.6951 59.0695C14.8999 59.2743 15.0591 59.5075 15.1729 59.7691C15.2867 60.0422 15.3435 60.3322 15.3435 60.6394C15.3435 60.9466 15.2867 61.231 15.1729 61.4926C15.0591 61.7657 14.8999 61.9989 14.6951 62.1923C14.5017 62.397 14.2685 62.5563 13.9955 62.6701C13.7338 62.7838 13.4494 62.8407 13.1422 62.8407C12.8351 62.8407 12.545 62.7838 12.272 62.6701C12.0103 62.5563 11.7771 62.397 11.5723 62.1923C11.3789 61.9989 11.2197 61.7657 11.0945 61.4926C10.9808 61.231 10.9239 60.9466 10.9239 60.6394ZM5.66805 60.6394C5.66805 60.3322 5.72493 60.0422 5.8387 59.7691C5.96383 59.5075 6.1231 59.2743 6.3165 59.0695C6.52127 58.8761 6.75448 58.7225 7.01614 58.6087C7.28917 58.495 7.57926 58.4381 7.88642 58.4381C8.19358 58.4381 8.47798 58.495 8.73963 58.6087C9.01266 58.7225 9.24588 58.8761 9.43927 59.0695C9.64404 59.2743 9.80331 59.5075 9.91707 59.7691C10.0422 60.0422 10.1048 60.3322 10.1048 60.6394C10.1048 60.9466 10.0422 61.231 9.91707 61.4926C9.80331 61.7657 9.64404 61.9989 9.43927 62.1923C9.24588 62.397 9.01266 62.5563 8.73963 62.6701C8.47798 62.7838 8.19358 62.8407 7.88642 62.8407C7.57926 62.8407 7.28917 62.7838 7.01614 62.6701C6.75448 62.5563 6.52127 62.397 6.3165 62.1923C6.1231 61.9989 5.96383 61.7657 5.8387 61.4926C5.72493 61.231 5.66805 60.9466 5.66805 60.6394ZM27.2203 27.637V50.6738H22.8689V27.637H27.2203ZM38.2268 33.7119V48.336C38.2268 48.3588 38.2211 48.5237 38.2098 48.8309C38.1984 49.138 38.1301 49.5305 38.005 50.0083C37.8912 50.4861 37.6978 51.0322 37.4248 51.6465C37.1518 52.2608 36.7536 52.8865 36.2303 53.5236C35.707 54.172 35.0358 54.8091 34.2167 55.4348C33.3976 56.0605 32.3851 56.6293 31.1792 57.1412L29.4899 53.114C30.0473 52.8751 30.5365 52.6249 30.9574 52.3632C31.3897 52.1129 31.7594 51.8513 32.0666 51.5782C32.3851 51.3166 32.6468 51.0549 32.8515 50.7933C33.0563 50.543 33.227 50.3041 33.3635 50.0766C33.6706 49.5305 33.8356 48.9958 33.8583 48.4725V33.7119H38.2268ZM44.114 52.3973H49.5746C50.2231 52.3973 50.8032 52.2494 51.3152 51.9537C51.8271 51.6579 52.2196 51.2313 52.4926 50.6738H47.4586C46.685 50.6738 45.957 50.5259 45.2744 50.2302C44.5918 49.9344 43.9946 49.5362 43.4826 49.0357C42.9821 48.5237 42.5839 47.9265 42.2881 47.2439C41.9924 46.5613 41.8445 45.8332 41.8445 45.0597V41.6127C41.8445 40.5205 42.0435 39.4967 42.4417 38.5411C42.8513 37.5855 43.403 36.7493 44.097 36.0326C44.8023 35.3159 45.6214 34.7528 46.5542 34.3433C47.4871 33.9223 48.4825 33.7119 49.5405 33.7119C50.6098 33.7119 51.611 33.928 52.5438 34.3603C53.488 34.7812 54.3071 35.35 55.0011 36.0668C55.7064 36.7835 56.2581 37.6139 56.6563 38.5581C57.0659 39.5024 57.2706 40.4921 57.2706 41.5273V46.3224H60.4275V50.6738H57.117C56.9237 51.527 56.5881 52.3234 56.1102 53.0628C55.6438 53.8023 55.075 54.445 54.4038 54.9911C53.744 55.5372 52.9989 55.9638 52.1684 56.2709C51.3493 56.5895 50.4847 56.7487 49.5746 56.7487H44.114V52.3973ZM52.9192 46.3224V41.5273C52.9192 41.0723 52.8339 40.6343 52.6633 40.2134C52.4926 39.7925 52.2537 39.4284 51.9466 39.1213C51.6394 38.8027 51.2754 38.5525 50.8544 38.3704C50.4449 38.177 50.0069 38.0803 49.5405 38.0803C49.0741 38.0803 48.6361 38.1714 48.2265 38.3534C47.8284 38.5354 47.4757 38.7857 47.1685 39.1042C46.8728 39.4227 46.6339 39.7982 46.4518 40.2305C46.2812 40.6627 46.1959 41.1235 46.1959 41.6127V45.0597C46.1959 45.4123 46.3153 45.7138 46.5542 45.9641C46.8045 46.203 47.106 46.3224 47.4586 46.3224H52.9192ZM58.9941 50.6738V46.3224H62.151V43.6945C62.151 43.0119 62.2534 42.3692 62.4582 41.7662C62.663 41.1519 62.9474 40.6002 63.3114 40.111C63.6754 39.6218 64.1021 39.2009 64.5912 38.8482C65.0918 38.4842 65.6378 38.2169 66.2294 38.0462C66.6048 37.3864 67.094 36.7891 67.6969 36.2545C68.3113 35.7198 68.9881 35.2647 69.7276 34.8893C70.4671 34.5139 71.252 34.2238 72.0825 34.019C72.9243 33.8143 73.7662 33.7119 74.608 33.7119C75.6432 33.7119 76.6387 33.8598 77.5943 34.1555C78.5612 34.4513 79.4145 34.9178 80.1539 35.5548C80.8934 36.1919 81.4849 37.0167 81.9286 38.0292C82.3723 39.0303 82.5941 40.2418 82.5941 41.6639V46.3224H85.8022V50.6738H58.9941ZM73.4647 46.3224H78.2427V41.6639C78.2427 41.0268 78.1403 40.4807 77.9355 40.0257C77.7308 39.5706 77.4577 39.2009 77.1165 38.9165C76.7865 38.6207 76.3998 38.4046 75.9561 38.2681C75.5238 38.1315 75.0744 38.0633 74.608 38.0633C73.9937 38.0633 73.3907 38.1429 72.7992 38.3022C72.219 38.4614 71.69 38.689 71.2122 38.9848C71.9175 39.5194 72.4693 40.1849 72.8674 40.9813C73.277 41.7776 73.4761 42.6593 73.4647 43.6263V46.3224ZM66.5195 46.3224H69.0962V43.6263C69.0962 43.4215 69.0621 43.2338 68.9938 43.0631C68.9369 42.8811 68.8459 42.7275 68.7208 42.6024C68.607 42.4659 68.4705 42.3635 68.3113 42.2952C68.152 42.2156 67.9813 42.1758 67.7993 42.1758C67.4353 42.1758 67.1281 42.3237 66.8779 42.6195C66.6389 42.9039 66.5195 43.2622 66.5195 43.6945V46.3224ZM92.1843 27.637V45.0255C92.1843 45.7991 92.0364 46.5329 91.7406 47.2268C91.4448 47.9094 91.0353 48.5067 90.512 49.0186C90 49.5305 89.3971 49.9344 88.7031 50.2302C88.0206 50.5259 87.2868 50.6738 86.5018 50.6738H84.3859V46.3224H86.5018C86.8773 46.3224 87.1901 46.1973 87.4404 45.947C87.702 45.6967 87.8329 45.3896 87.8329 45.0255V27.637H92.1843ZM100.119 27.637V50.6738H95.7678V27.637H100.119ZM111.552 52.3973H117.03C117.678 52.3973 118.259 52.2494 118.771 51.9537C119.282 51.6579 119.675 51.2313 119.948 50.6738H114.914C114.14 50.6738 113.412 50.5259 112.73 50.2302C112.047 49.9344 111.45 49.5362 110.938 49.0357C110.426 48.5237 110.022 47.9265 109.726 47.2439C109.431 46.5613 109.283 45.8332 109.283 45.0597V41.6127C109.283 40.5205 109.482 39.4967 109.88 38.5411C110.29 37.5855 110.841 36.7493 111.535 36.0326C112.241 35.3159 113.06 34.7528 113.992 34.3433C114.937 33.9223 115.938 33.7119 116.996 33.7119C118.065 33.7119 119.066 33.928 119.999 34.3603C120.943 34.7812 121.762 35.35 122.456 36.0668C123.162 36.7835 123.713 37.6139 124.112 38.5581C124.521 39.5024 124.726 40.4921 124.726 41.5273V49.0357C124.726 50.0936 124.521 51.0891 124.112 52.0219C123.713 52.9661 123.167 53.7852 122.473 54.4792C121.78 55.1845 120.96 55.7362 120.016 56.1344C119.083 56.544 118.088 56.7487 117.03 56.7487H111.552V52.3973ZM120.375 46.3224V41.5273C120.375 41.0723 120.284 40.6343 120.102 40.2134C119.931 39.7925 119.692 39.4284 119.385 39.1213C119.078 38.8027 118.719 38.5525 118.31 38.3704C117.9 38.177 117.462 38.0803 116.996 38.0803C116.529 38.0803 116.091 38.1714 115.682 38.3534C115.284 38.5354 114.931 38.7857 114.624 39.1042C114.328 39.4227 114.089 39.7982 113.907 40.2305C113.737 40.6627 113.651 41.1235 113.651 41.6127V45.0597C113.651 45.4123 113.771 45.7138 114.01 45.9641C114.26 46.203 114.561 46.3224 114.914 46.3224H120.375ZM135.715 33.7119V46.3224H138.872V50.6738H135.391C135.255 51.1403 135.044 51.6465 134.76 52.1926C134.475 52.7386 134.072 53.296 133.548 53.8649C133.036 54.445 132.382 55.0139 131.586 55.5713C130.789 56.1287 129.817 56.6463 128.668 57.1241L126.996 53.114C127.553 52.8751 128.042 52.6249 128.463 52.3632C128.895 52.1129 129.265 51.857 129.572 51.5953C129.879 51.345 130.135 51.0947 130.34 50.8445C130.545 50.6056 130.716 50.3724 130.852 50.1448C131.159 49.6215 131.324 49.1096 131.347 48.609V33.7119H135.715ZM147.097 33.7119V46.3224H150.271V50.6738H137.473V46.3224H142.746V33.7119H147.097ZM142.712 29.8553C142.712 29.5482 142.769 29.2638 142.882 29.0021C142.996 28.7291 143.15 28.4959 143.343 28.3025C143.548 28.0977 143.781 27.9384 144.043 27.8247C144.316 27.6995 144.606 27.637 144.913 27.637C145.22 27.637 145.505 27.6995 145.766 27.8247C146.039 27.9384 146.273 28.0977 146.466 28.3025C146.671 28.4959 146.83 28.7291 146.944 29.0021C147.058 29.2638 147.114 29.5482 147.114 29.8553C147.114 30.1625 147.058 30.4526 146.944 30.7256C146.83 30.9873 146.671 31.2205 146.466 31.4253C146.273 31.6186 146.039 31.7722 145.766 31.886C145.505 31.9997 145.22 32.0566 144.913 32.0566C144.606 32.0566 144.316 31.9997 144.043 31.886C143.781 31.7722 143.548 31.6186 143.343 31.4253C143.15 31.2205 142.996 30.9873 142.882 30.7256C142.769 30.4526 142.712 30.1625 142.712 29.8553ZM137.456 29.8553C137.456 29.5482 137.513 29.2638 137.627 29.0021C137.74 28.7291 137.9 28.4959 138.104 28.3025C138.298 28.0977 138.525 27.9384 138.787 27.8247C139.06 27.6995 139.35 27.637 139.657 27.637C139.964 27.637 140.249 27.6995 140.51 27.8247C140.784 27.9384 141.017 28.0977 141.21 28.3025C141.415 28.4959 141.574 28.7291 141.688 29.0021C141.813 29.2638 141.876 29.5482 141.876 29.8553C141.876 30.1625 141.813 30.4526 141.688 30.7256C141.574 30.9873 141.415 31.2205 141.21 31.4253C141.017 31.6186 140.784 31.7722 140.51 31.886C140.249 31.9997 139.964 32.0566 139.657 32.0566C139.35 32.0566 139.06 31.9997 138.787 31.886C138.525 31.7722 138.298 31.6186 138.104 31.4253C137.9 31.2205 137.74 30.9873 137.627 30.7256C137.513 30.4526 137.456 30.1625 137.456 29.8553ZM164.418 30.2307L160.51 33.7119C161.261 33.7232 162.006 33.7858 162.745 33.8996C163.485 34.0133 164.19 34.1954 164.861 34.4456C165.533 34.6845 166.153 35.0031 166.721 35.4012C167.302 35.7994 167.796 36.2886 168.206 36.8688C168.627 37.449 168.957 38.1372 169.196 38.9336C169.435 39.7185 169.554 40.6229 169.554 41.6468V46.3224H172.711V50.6738H148.855V46.3224H165.186V41.6468C165.186 40.9415 165.038 40.3613 164.742 39.9062C164.457 39.4398 164.076 39.0701 163.599 38.797C163.132 38.524 162.597 38.3363 161.994 38.2339C161.403 38.1202 160.8 38.0633 160.186 38.0633C159.583 38.0633 158.951 38.1145 158.292 38.2169C157.643 38.3192 157.023 38.4444 156.432 38.5923C155.84 38.7288 155.305 38.8824 154.827 39.053C154.35 39.2123 153.974 39.3545 153.701 39.4796L151.773 35.9644L161.278 27.1762L164.418 30.2307ZM179.076 27.637V45.0255C179.076 45.7991 178.928 46.5329 178.632 47.2268C178.336 47.9094 177.927 48.5067 177.404 49.0186C176.892 49.5305 176.289 49.9344 175.595 50.2302C174.912 50.5259 174.178 50.6738 173.393 50.6738H171.277V46.3224H173.393C173.769 46.3224 174.082 46.1973 174.332 45.947C174.594 45.6967 174.724 45.3896 174.724 45.0255V27.637H179.076ZM187.011 27.637V50.6738H182.659V27.637H187.011Z" fill="black"/>
<rect x="198.663" y="23.3707" width="36.4918" height="36.6062" rx="2" fill="#372F28"/>
<path d="M205.627 54.6738V29.1476H211.024V39.6797H221.98V29.1476H227.364V54.6738H221.98V44.1293H211.024V54.6738H205.627Z" fill="#E9E4DC"/>
</svg>
