<svg width="35" height="25" viewBox="0 0 35 25" fill="none" xmlns="http://www.w3.org/2000/svg">
<path fill-rule="evenodd" clip-rule="evenodd" d="M0.541634 2.78133C0.541634 1.63074 1.47437 0.697998 2.62497 0.697998H32.625C33.7756 0.697998 34.7083 1.63074 34.7083 2.78133C34.7083 3.93192 33.7756 4.86466 32.625 4.86466H2.62497C1.47437 4.86466 0.541634 3.93192 0.541634 2.78133ZM0.541634 12.7813C0.541634 11.6307 1.47437 10.698 2.62497 10.698H32.625C33.7756 10.698 34.7083 11.6307 34.7083 12.7813C34.7083 13.9319 33.7756 14.8647 32.625 14.8647H2.62497C1.47437 14.8647 0.541634 13.9319 0.541634 12.7813ZM0.541634 22.7813C0.541634 21.6307 1.47437 20.698 2.62497 20.698H32.625C33.7756 20.698 34.7083 21.6307 34.7083 22.7813C34.7083 23.9319 33.7756 24.8647 32.625 24.8647H2.62497C1.47437 24.8647 0.541634 23.9319 0.541634 22.7813Z" fill="#292929"/>
</svg>