<svg width="28" height="28" viewBox="0 0 28 28" fill="none" xmlns="http://www.w3.org/2000/svg">
<path d="M17.2642 13.7344L27.129 3.87019C27.2123 3.787 27.2783 3.68822 27.3234 3.57949C27.3685 3.47076 27.3917 3.35422 27.3917 3.23653C27.3917 3.11883 27.3685 3.00229 27.3234 2.89356C27.2783 2.78483 27.2123 2.68605 27.129 2.60286L25.2437 0.716863C25.0756 0.548911 24.8477 0.454575 24.6101 0.45459C24.3725 0.45456 24.1446 0.548897 23.9765 0.716863L14.1117 10.5818L4.24687 0.716863C4.07876 0.548897 3.85084 0.45456 3.6132 0.45459C3.37559 0.454575 3.14769 0.548911 2.9796 0.716863L1.09429 2.60286C1.01103 2.68605 0.944985 2.78483 0.899922 2.89356C0.854859 3.00229 0.831665 3.11883 0.831665 3.23653C0.831665 3.35422 0.854859 3.47076 0.899922 3.57949C0.944985 3.68822 1.01103 3.787 1.09429 3.87019L10.9591 13.7344L1.09527 23.5974C0.745151 23.9477 0.745151 24.5146 1.09527 24.8647L2.98069 26.7507C3.14849 26.9185 3.37641 27.013 3.6143 27.013C3.85219 27.013 4.08005 26.9185 4.24802 26.7507L14.1116 16.887L23.9753 26.7507C24.1434 26.9187 24.3713 27.0131 24.6089 27.013C24.8469 27.013 25.0747 26.9185 25.2425 26.7507L27.1279 24.8647C27.4781 24.5146 27.4781 23.9477 27.1279 23.5974L17.2642 13.7344Z" fill="black"/>
</svg>
